Coordinates
version=1
nRows=43
nColumns=12
inDegrees=yes

Units are S.I. units (second, meters, Newtons, ...)
Angles are in degrees

endheader
time	SC_y	SC_z	SC_x	AC_y	AC_z	AC_x	GH_y	GH_z	GH_yy	EL_x	PS_y
       0.0               -54.7          22.36          82.96          65.24         -9.661         -11.12          151.8          12.24         -52.59          53.01          50.25
  0.006145              -54.69          22.36          82.96          65.24         -9.659         -11.12          151.8          12.24         -52.56          53.02          50.26
   0.01229              -54.69          22.35          82.96          65.24         -9.657         -11.12          151.8          12.24         -52.53          53.02          50.27
   0.01843              -54.69          22.35          82.96          65.24         -9.655         -11.13          151.7          12.24          -52.5          53.03          50.28
   0.02458              -54.69          22.35          82.95          65.23         -9.653         -11.13          151.7          12.23         -52.46          53.04          50.29
   0.03072              -54.68          22.35          82.95          65.23         -9.651         -11.13          151.7          12.23         -52.43          53.05           50.3
   0.03687              -54.68          22.35          82.95          65.23         -9.649         -11.13          151.7          12.23         -52.39          53.06          50.32
   0.04301              -54.68          22.35          82.95          65.23         -9.646         -11.13          151.6          12.23         -52.35          53.06          50.33
   0.04916              -54.67          22.34          82.95          65.22         -9.644         -11.13          151.6          12.23         -52.31          53.07          50.35
    0.0553              -54.67          22.34          82.95          65.22         -9.641         -11.14          151.6          12.22         -52.26          53.09          50.37
   0.06145              -54.67          22.34          82.95          65.21         -9.638         -11.14          151.6          12.22         -52.21           53.1          50.39
   0.06759              -54.66          22.34          82.95          65.21         -9.634         -11.14          151.5          12.22         -52.15          53.11          50.41
   0.07374              -54.66          22.34          82.95          65.21         -9.631         -11.14          151.5          12.21          -52.1          53.12          50.43
   0.07988              -54.65          22.33          82.94           65.2         -9.627         -11.15          151.4          12.21         -52.03          53.14          50.45
   0.08603              -54.65          22.33          82.94          65.19         -9.623         -11.15          151.4          12.21         -51.96          53.15          50.48
   0.09217              -54.64          22.33          82.94          65.19         -9.618         -11.15          151.4           12.2         -51.89          53.17           50.5
   0.09832              -54.63          22.32          82.94          65.18         -9.613         -11.16          151.3           12.2         -51.81          53.19          50.53
    0.1045              -54.63          22.32          82.94          65.18         -9.608         -11.16          151.3          12.19         -51.72          53.21          50.57
    0.1106              -54.62          22.32          82.93          65.17         -9.602         -11.17          151.2          12.19         -51.63          53.23           50.6
    0.1168              -54.61          22.31          82.93          65.16         -9.596         -11.17          151.1          12.18         -51.52          53.26          50.64
    0.1229               -54.6          22.31          82.93          65.15         -9.589         -11.18          151.1          12.18         -51.41          53.28          50.68
     0.129              -54.59           22.3          82.93          65.14         -9.581         -11.18          151.0          12.17         -51.28          53.31          50.73
    0.1352              -54.58          22.29          82.92          65.13         -9.573         -11.19          150.9          12.16         -51.14          53.34          50.78
    0.1413              -54.56          22.29          82.92          65.12         -9.563         -11.19          150.8          12.15         -50.98          53.38          50.84
    0.1475              -54.55          22.28          82.91           65.1         -9.553          -11.2          150.7          12.15         -50.81          53.42           50.9
    0.1536              -54.53          22.27          82.91          65.09         -9.541         -11.21          150.6          12.13         -50.62          53.46          50.98
    0.1598              -54.52          22.26           82.9          65.07         -9.528         -11.22          150.5          12.12          -50.4          53.51          51.06
    0.1659               -54.5          22.25           82.9          65.05         -9.513         -11.23          150.3          12.11         -50.16          53.57          51.14
    0.1721              -54.47          22.24          82.89          65.03         -9.496         -11.24          150.1          12.09         -49.89          53.63          51.25
    0.1782              -54.45          22.23          82.88          65.01         -9.477         -11.26          150.0          12.08         -49.58           53.7          51.36
    0.1843              -54.42          22.21          82.87          64.98         -9.456         -11.27          149.7          12.06         -49.22          53.78          51.49
    0.1905              -54.38          22.19          82.86          64.95         -9.431         -11.29          149.5          12.04         -48.81          53.88          51.64
    0.1966              -54.34          22.17          82.85          64.91         -9.402         -11.31          149.2          12.01         -48.34          53.98          51.82
    0.2028               -54.3          22.15          82.84          64.87         -9.369         -11.34          148.9          11.98          -47.8          54.11          52.02
    0.2089              -54.25          22.12          82.82          64.82          -9.33         -11.37          148.5          11.95         -47.16          54.26          52.26
    0.2151              -54.18          22.09           82.8          64.76         -9.284          -11.4          148.0          11.91          -46.4          54.43          52.54
    0.2212              -54.11          22.05          82.78          64.69          -9.23         -11.44          147.5          11.86         -45.51          54.64          52.87
    0.2274              -54.02          22.01          82.75           64.6         -9.164         -11.49          146.8           11.8         -44.43          54.88          53.27
    0.2335              -53.91          21.95          82.72           64.5         -9.085         -11.55          146.0          11.73         -43.13          55.18          53.75
    0.2396              -53.78          21.88          82.68          64.38         -8.989         -11.62          145.1          11.64         -41.54          55.55          54.34
    0.2458              -53.62           21.8          82.63          64.22         -8.869         -11.71          143.9          11.54         -39.59           56.0          55.07
    0.2519              -53.42          21.69          82.57          64.03         -8.721         -11.82          142.4           11.4         -37.14          56.56          55.97
    0.2581              -53.16          21.56           82.5          63.79         -8.533         -11.96          140.5          11.24         -34.06          57.26          57.11
